<svg width="100" height="100" viewBox="0 0 100 100" fill="none" xmlns="http://www.w3.org/2000/svg">
<path d="M97.9167 16.6666H37.5V83.3333H97.9167V16.6666Z" fill="#76B900"/>
<path d="M37.5 36.8334C38.5833 36.7292 39.6875 36.6459 40.7708 36.6875C51.0833 36.6875 57.2292 44.7084 57.2292 44.7084L48.8333 51.7709C45.0833 45.4792 43.7708 42.7084 37.5 41.9584V36.8334ZM37.5 59.8334C39.0208 60.3334 40.6667 60.5834 42.2917 60.5834C54.5417 60.5834 65.9375 44.75 65.9375 44.75C65.9375 44.75 55.375 30.3542 39.25 30.875C38.6667 30.875 38.0833 30.9167 37.5 30.9375V26.1459L39.25 26.0417C61.6667 25.2709 76.2917 44.4167 76.2917 44.4167C76.2917 44.4167 59.5208 64.8334 42.0417 64.8334C40.5208 64.8334 38.9792 64.6875 37.5 64.4375V59.8334ZM41.5625 75.1875C40.1875 75.1875 38.8125 75.125 37.5 74.9792V69.8959C38.7292 70.0417 40.0417 70.1459 41.2708 70.1459C57.5625 70.1459 69.3333 61.8334 80.7292 52.0209C82.625 53.5417 90.3542 57.2084 91.9583 58.8125C81.125 67.8959 55.875 75.1875 41.5625 75.1875Z" fill="#FAFAFA"/>
<path d="M37.5 59.8271V64.4771C22.4604 61.7896 18.2812 46.1313 18.2812 46.1313C18.2812 46.1313 25.5104 38.1396 37.5 36.8313V41.9167H37.4646C31.1792 41.1542 26.2396 47.0396 26.2396 47.0396C26.2396 47.0396 29.0354 56.9563 37.5 59.8271Z" fill="#76B900"/>
<path d="M10.7979 45.4771C10.7979 45.4771 19.6979 32.325 37.5354 30.9459V26.15C17.7729 27.7479 0.697937 44.4604 0.697937 44.4604C0.697937 44.4604 10.3625 72.4334 37.5 74.9771V69.8917C17.5917 67.4188 10.7979 45.4771 10.7979 45.4771Z" fill="#76B900"/>
</svg>
