<svg width="99" height="67" viewBox="0 0 99 67" fill="none" xmlns="http://www.w3.org/2000/svg">
<path d="M96.6219 66.9499H0.720703V0.0500488H98.2795V66.9499H96.6219Z" fill="#1D5B99"/>
<path fill-rule="evenodd" clip-rule="evenodd" d="M96.6226 65.2614H2.37891V1.73859H96.6226V65.2614Z" fill="white"/>
<path fill-rule="evenodd" clip-rule="evenodd" d="M36.44 43.8161L42.5606 23.258H48.0217L41.9006 43.8161H36.44ZM33.9986 23.2637L29.0859 31.9789C27.8358 34.2617 27.1042 35.4147 26.7528 36.8561H26.6779C26.765 35.0285 26.5147 32.783 26.4914 31.514L25.9485 23.2637H16.7559L16.6621 23.8167C19.0235 23.8167 20.4241 25.0251 20.8093 27.4974L22.6012 43.8161H28.2588L39.699 23.2637H33.9986ZM76.4675 43.8161L76.3171 40.7591L69.4987 40.7534L68.1032 43.8161H62.1747L72.9254 23.297H80.2023L82.0225 43.8161H76.4675ZM75.8419 31.6893C75.7803 30.1699 75.7304 28.1081 75.8308 26.8596H75.7504C75.4184 27.8802 73.9907 30.9452 73.3628 32.4522L71.3312 36.9579H76.1189L75.8419 31.6893ZM53.7548 44.4002C49.8996 44.4002 47.3406 43.1545 45.5143 42.0433L48.1155 37.9967C49.7559 38.9309 51.0431 40.0093 54.0063 40.0093C54.9583 40.0093 55.8765 39.7576 56.3983 38.8376C57.1571 37.5014 56.2228 36.7809 54.0901 35.551L53.0365 34.8532C49.8741 32.6523 48.5058 30.5612 49.9945 26.9116C50.9477 24.5773 53.4595 22.8073 57.6056 22.8073C60.4633 22.8073 63.1439 24.0672 64.7049 25.2977L61.7145 28.8704C60.1902 27.615 58.9273 26.98 57.4818 26.98C56.3294 26.98 55.4535 27.4329 55.1509 28.0437C54.5819 29.1916 55.3352 29.9742 56.9972 31.0249L58.2495 31.8369C62.0898 34.3041 63.0035 36.8906 62.042 39.3081C60.3856 43.4717 57.1449 44.4002 53.7548 44.4002ZM83.6484 26.0441H83.4119V24.5773H83.9582C84.3062 24.5773 84.4827 24.7011 84.4827 24.9991C84.4827 25.2649 84.3234 25.3752 84.1075 25.3995L84.511 26.0441H84.2435L83.8716 25.4176H83.6484V26.0441ZM83.9126 25.2112C84.0903 25.2112 84.2468 25.1936 84.2468 24.981C84.2468 24.804 84.0764 24.7825 83.9348 24.7825H83.6484V25.2112H83.9126ZM83.906 26.6113C83.1577 26.6113 82.6253 26.0407 82.6253 25.2858C82.6253 24.4891 83.216 23.9609 83.906 23.9609C84.5871 23.9609 85.1788 24.4891 85.1788 25.2858C85.1788 26.0831 84.5871 26.6113 83.906 26.6113ZM83.906 24.191C83.342 24.191 82.904 24.6412 82.904 25.2858C82.904 25.8881 83.2865 26.3806 83.906 26.3806C84.4622 26.3806 84.9002 25.9339 84.9002 25.2858C84.9002 24.6412 84.4622 24.191 83.906 24.191Z" fill="#1D5B99"/>
<path fill-rule="evenodd" clip-rule="evenodd" d="M94.3022 50.2009H4.86523V62.391H94.3022V50.2009Z" fill="#E7A83A"/>
<path fill-rule="evenodd" clip-rule="evenodd" d="M94.1357 4.77808H4.69922V16.9687H94.1357V4.77808ZM92.0918 61.5242H91.8553V60.0573H92.4015C92.7496 60.0573 92.9261 60.1812 92.9261 60.4792C92.9261 60.7444 92.7668 60.8546 92.5508 60.879L92.9544 61.5242H92.6868L92.3149 60.8971H92.0918V61.5242ZM92.3565 60.6912C92.5342 60.6912 92.6907 60.6737 92.6907 60.4605C92.6907 60.2841 92.5203 60.2626 92.3787 60.2626H92.0923V60.6912H92.3565ZM92.3499 62.0908C91.6016 62.0908 91.0693 61.5208 91.0693 60.7653C91.0693 59.9691 91.661 59.4409 92.3499 59.4409C93.0321 59.4409 93.6228 59.9691 93.6228 60.7653C93.6228 61.5626 93.0321 62.0908 92.3499 62.0908ZM92.3499 59.6705C91.7859 59.6705 91.3479 60.1212 91.3479 60.7653C91.3479 61.3681 91.7304 61.8601 92.3499 61.8601C92.9061 61.8601 93.3441 61.4139 93.3441 60.7653C93.3441 60.1212 92.9061 59.6705 92.3499 59.6705Z" fill="#1D5B99"/>
</svg>
